<mxfile host="app.diagrams.net" agent="Mozilla/5.0 (Macintosh; Intel Mac OS X 10_15_7) AppleWebKit/537.36 (KHTML, like Gecko) Chrome/132.0.0.0 Safari/537.36" version="26.0.11">
  <diagram name="Page-1" id="PGLVXAiq9R_V7fNon7wM">
    <mxGraphModel dx="602" dy="914" grid="1" gridSize="10" guides="1" tooltips="1" connect="1" arrows="1" fold="1" page="1" pageScale="1" pageWidth="850" pageHeight="1100" math="0" shadow="0">
      <root>
        <mxCell id="0" />
        <mxCell id="1" parent="0" />
        <mxCell id="dDl5YL72DU-pMeRoa_QV-18" value="" style="rounded=0;whiteSpace=wrap;html=1;" vertex="1" parent="1">
          <mxGeometry x="200" y="200" width="400" height="40" as="geometry" />
        </mxCell>
        <mxCell id="dDl5YL72DU-pMeRoa_QV-19" value="" style="rounded=0;whiteSpace=wrap;html=1;" vertex="1" parent="1">
          <mxGeometry x="240" y="240" width="320" height="40" as="geometry" />
        </mxCell>
        <mxCell id="dDl5YL72DU-pMeRoa_QV-20" value="" style="rounded=0;whiteSpace=wrap;html=1;dashed=1;strokeWidth=0;" vertex="1" parent="1">
          <mxGeometry x="210" y="200" width="3" height="40" as="geometry" />
        </mxCell>
        <mxCell id="dDl5YL72DU-pMeRoa_QV-21" value="" style="rounded=0;whiteSpace=wrap;html=1;dashed=1;strokeWidth=0;" vertex="1" parent="1">
          <mxGeometry x="220" y="200" width="3" height="40" as="geometry" />
        </mxCell>
        <mxCell id="dDl5YL72DU-pMeRoa_QV-22" value="" style="rounded=0;whiteSpace=wrap;html=1;dashed=1;strokeWidth=0;" vertex="1" parent="1">
          <mxGeometry x="575" y="200" width="3" height="40" as="geometry" />
        </mxCell>
        <mxCell id="dDl5YL72DU-pMeRoa_QV-23" value="" style="rounded=0;whiteSpace=wrap;html=1;dashed=1;strokeWidth=0;" vertex="1" parent="1">
          <mxGeometry x="585" y="200" width="3" height="40" as="geometry" />
        </mxCell>
        <mxCell id="dDl5YL72DU-pMeRoa_QV-24" value="" style="rounded=0;whiteSpace=wrap;html=1;" vertex="1" parent="1">
          <mxGeometry x="200" y="320" width="400" height="40" as="geometry" />
        </mxCell>
        <mxCell id="dDl5YL72DU-pMeRoa_QV-25" value="" style="rounded=0;whiteSpace=wrap;html=1;" vertex="1" parent="1">
          <mxGeometry x="240" y="320" width="320" height="40" as="geometry" />
        </mxCell>
        <mxCell id="dDl5YL72DU-pMeRoa_QV-30" value="" style="ellipse;whiteSpace=wrap;html=1;aspect=fixed;" vertex="1" parent="1">
          <mxGeometry x="209" y="330" width="5" height="5" as="geometry" />
        </mxCell>
        <mxCell id="dDl5YL72DU-pMeRoa_QV-31" value="" style="ellipse;whiteSpace=wrap;html=1;aspect=fixed;" vertex="1" parent="1">
          <mxGeometry x="219" y="339" width="5" height="5" as="geometry" />
        </mxCell>
        <mxCell id="dDl5YL72DU-pMeRoa_QV-32" value="" style="ellipse;whiteSpace=wrap;html=1;aspect=fixed;" vertex="1" parent="1">
          <mxGeometry x="209" y="347" width="5" height="5" as="geometry" />
        </mxCell>
        <mxCell id="dDl5YL72DU-pMeRoa_QV-33" value="" style="ellipse;whiteSpace=wrap;html=1;aspect=fixed;" vertex="1" parent="1">
          <mxGeometry x="585" y="330.5" width="5" height="5" as="geometry" />
        </mxCell>
        <mxCell id="dDl5YL72DU-pMeRoa_QV-34" value="" style="ellipse;whiteSpace=wrap;html=1;aspect=fixed;" vertex="1" parent="1">
          <mxGeometry x="574" y="339.5" width="5" height="5" as="geometry" />
        </mxCell>
        <mxCell id="dDl5YL72DU-pMeRoa_QV-35" value="" style="ellipse;whiteSpace=wrap;html=1;aspect=fixed;" vertex="1" parent="1">
          <mxGeometry x="585" y="347.5" width="5" height="5" as="geometry" />
        </mxCell>
        <mxCell id="dDl5YL72DU-pMeRoa_QV-5" value="" style="endArrow=none;html=1;rounded=0;" edge="1" parent="1">
          <mxGeometry width="50" height="50" relative="1" as="geometry">
            <mxPoint x="164.17000000000002" y="740" as="sourcePoint" />
            <mxPoint x="244.17000000000002" y="740" as="targetPoint" />
          </mxGeometry>
        </mxCell>
        <mxCell id="dDl5YL72DU-pMeRoa_QV-6" value="" style="endArrow=none;html=1;rounded=0;" edge="1" parent="1">
          <mxGeometry width="50" height="50" relative="1" as="geometry">
            <mxPoint x="164.17000000000002" y="660" as="sourcePoint" />
            <mxPoint x="164.17000000000002" y="740" as="targetPoint" />
          </mxGeometry>
        </mxCell>
        <mxCell id="dDl5YL72DU-pMeRoa_QV-7" value="" style="endArrow=none;html=1;rounded=0;" edge="1" parent="1">
          <mxGeometry width="50" height="50" relative="1" as="geometry">
            <mxPoint x="244.17000000000002" y="660" as="sourcePoint" />
            <mxPoint x="244.17000000000002" y="740" as="targetPoint" />
          </mxGeometry>
        </mxCell>
        <mxCell id="dDl5YL72DU-pMeRoa_QV-10" value="" style="endArrow=none;html=1;rounded=0;" edge="1" parent="1">
          <mxGeometry width="50" height="50" relative="1" as="geometry">
            <mxPoint x="244.17000000000002" y="740" as="sourcePoint" />
            <mxPoint x="574.17" y="510" as="targetPoint" />
          </mxGeometry>
        </mxCell>
        <mxCell id="dDl5YL72DU-pMeRoa_QV-40" value="" style="endArrow=none;html=1;rounded=0;dashed=1;" edge="1" parent="1">
          <mxGeometry width="50" height="50" relative="1" as="geometry">
            <mxPoint x="494.17" y="510" as="sourcePoint" />
            <mxPoint x="574.17" y="510" as="targetPoint" />
          </mxGeometry>
        </mxCell>
        <mxCell id="dDl5YL72DU-pMeRoa_QV-41" value="" style="endArrow=none;html=1;rounded=0;" edge="1" parent="1">
          <mxGeometry width="50" height="50" relative="1" as="geometry">
            <mxPoint x="574.17" y="430" as="sourcePoint" />
            <mxPoint x="574.17" y="510" as="targetPoint" />
          </mxGeometry>
        </mxCell>
        <mxCell id="dDl5YL72DU-pMeRoa_QV-42" value="" style="endArrow=none;html=1;rounded=0;dashed=1;" edge="1" parent="1">
          <mxGeometry width="50" height="50" relative="1" as="geometry">
            <mxPoint x="494.17" y="430" as="sourcePoint" />
            <mxPoint x="494.17" y="510" as="targetPoint" />
          </mxGeometry>
        </mxCell>
        <mxCell id="dDl5YL72DU-pMeRoa_QV-45" value="" style="endArrow=none;html=1;rounded=0;dashed=1;" edge="1" parent="1">
          <mxGeometry width="50" height="50" relative="1" as="geometry">
            <mxPoint x="164.17000000000002" y="740" as="sourcePoint" />
            <mxPoint x="494.17" y="510" as="targetPoint" />
          </mxGeometry>
        </mxCell>
        <mxCell id="dDl5YL72DU-pMeRoa_QV-46" value="" style="endArrow=none;html=1;rounded=0;dashed=1;" edge="1" parent="1">
          <mxGeometry width="50" height="50" relative="1" as="geometry">
            <mxPoint x="266.17" y="670" as="sourcePoint" />
            <mxPoint x="346.17" y="670" as="targetPoint" />
          </mxGeometry>
        </mxCell>
        <mxCell id="dDl5YL72DU-pMeRoa_QV-47" value="" style="endArrow=none;html=1;rounded=0;" edge="1" parent="1">
          <mxGeometry width="50" height="50" relative="1" as="geometry">
            <mxPoint x="266.17" y="750" as="sourcePoint" />
            <mxPoint x="346.17" y="750" as="targetPoint" />
          </mxGeometry>
        </mxCell>
        <mxCell id="dDl5YL72DU-pMeRoa_QV-48" value="" style="endArrow=none;html=1;rounded=0;dashed=1;" edge="1" parent="1">
          <mxGeometry width="50" height="50" relative="1" as="geometry">
            <mxPoint x="266.17" y="670" as="sourcePoint" />
            <mxPoint x="266.17" y="750" as="targetPoint" />
          </mxGeometry>
        </mxCell>
        <mxCell id="dDl5YL72DU-pMeRoa_QV-49" value="" style="endArrow=none;html=1;rounded=0;" edge="1" parent="1">
          <mxGeometry width="50" height="50" relative="1" as="geometry">
            <mxPoint x="346.17" y="670" as="sourcePoint" />
            <mxPoint x="346.17" y="750" as="targetPoint" />
          </mxGeometry>
        </mxCell>
        <mxCell id="dDl5YL72DU-pMeRoa_QV-50" value="" style="endArrow=none;html=1;rounded=0;" edge="1" parent="1">
          <mxGeometry width="50" height="50" relative="1" as="geometry">
            <mxPoint x="346.17" y="750" as="sourcePoint" />
            <mxPoint x="524.17" y="626" as="targetPoint" />
          </mxGeometry>
        </mxCell>
        <mxCell id="dDl5YL72DU-pMeRoa_QV-51" value="" style="endArrow=none;html=1;rounded=0;dashed=1;" edge="1" parent="1">
          <mxGeometry width="50" height="50" relative="1" as="geometry">
            <mxPoint x="444.17" y="545" as="sourcePoint" />
            <mxPoint x="524.17" y="545" as="targetPoint" />
          </mxGeometry>
        </mxCell>
        <mxCell id="dDl5YL72DU-pMeRoa_QV-52" value="" style="endArrow=none;html=1;rounded=0;dashed=1;" edge="1" parent="1">
          <mxGeometry width="50" height="50" relative="1" as="geometry">
            <mxPoint x="444.17" y="625" as="sourcePoint" />
            <mxPoint x="524.17" y="625" as="targetPoint" />
          </mxGeometry>
        </mxCell>
        <mxCell id="dDl5YL72DU-pMeRoa_QV-53" value="" style="endArrow=none;html=1;rounded=0;" edge="1" parent="1">
          <mxGeometry width="50" height="50" relative="1" as="geometry">
            <mxPoint x="524.17" y="545" as="sourcePoint" />
            <mxPoint x="524.17" y="625" as="targetPoint" />
          </mxGeometry>
        </mxCell>
        <mxCell id="dDl5YL72DU-pMeRoa_QV-54" value="" style="endArrow=none;html=1;rounded=0;dashed=1;" edge="1" parent="1">
          <mxGeometry width="50" height="50" relative="1" as="geometry">
            <mxPoint x="444.17" y="545" as="sourcePoint" />
            <mxPoint x="444.17" y="625" as="targetPoint" />
          </mxGeometry>
        </mxCell>
        <mxCell id="dDl5YL72DU-pMeRoa_QV-55" value="" style="endArrow=none;html=1;rounded=0;" edge="1" parent="1">
          <mxGeometry width="50" height="50" relative="1" as="geometry">
            <mxPoint x="244.17000000000002" y="740" as="sourcePoint" />
            <mxPoint x="574.17" y="510" as="targetPoint" />
          </mxGeometry>
        </mxCell>
        <mxCell id="dDl5YL72DU-pMeRoa_QV-56" value="" style="endArrow=none;html=1;rounded=0;dashed=1;" edge="1" parent="1">
          <mxGeometry width="50" height="50" relative="1" as="geometry">
            <mxPoint x="164.17000000000002" y="740" as="sourcePoint" />
            <mxPoint x="494.17" y="510" as="targetPoint" />
          </mxGeometry>
        </mxCell>
        <mxCell id="dDl5YL72DU-pMeRoa_QV-57" value="" style="endArrow=none;html=1;rounded=0;dashed=1;" edge="1" parent="1">
          <mxGeometry width="50" height="50" relative="1" as="geometry">
            <mxPoint x="266.17" y="750" as="sourcePoint" />
            <mxPoint x="444.17" y="625" as="targetPoint" />
          </mxGeometry>
        </mxCell>
        <mxCell id="dDl5YL72DU-pMeRoa_QV-59" value="" style="group;fillColor=none;gradientColor=default;gradientDirection=north;" vertex="1" connectable="0" parent="1">
          <mxGeometry x="164.17000000000002" y="430" width="409.99999999999994" height="230" as="geometry" />
        </mxCell>
        <mxCell id="dDl5YL72DU-pMeRoa_QV-4" value="" style="endArrow=none;html=1;rounded=0;" edge="1" parent="dDl5YL72DU-pMeRoa_QV-59">
          <mxGeometry width="50" height="50" relative="1" as="geometry">
            <mxPoint y="230" as="sourcePoint" />
            <mxPoint x="80" y="230" as="targetPoint" />
          </mxGeometry>
        </mxCell>
        <mxCell id="dDl5YL72DU-pMeRoa_QV-11" value="" style="endArrow=none;html=1;rounded=0;" edge="1" parent="dDl5YL72DU-pMeRoa_QV-59">
          <mxGeometry width="50" height="50" relative="1" as="geometry">
            <mxPoint x="330" as="sourcePoint" />
            <mxPoint x="409.99999999999994" as="targetPoint" />
          </mxGeometry>
        </mxCell>
        <mxCell id="dDl5YL72DU-pMeRoa_QV-43" value="" style="endArrow=none;html=1;rounded=0;" edge="1" parent="dDl5YL72DU-pMeRoa_QV-59">
          <mxGeometry width="50" height="50" relative="1" as="geometry">
            <mxPoint x="80" y="230" as="sourcePoint" />
            <mxPoint x="409.99999999999994" as="targetPoint" />
          </mxGeometry>
        </mxCell>
        <mxCell id="dDl5YL72DU-pMeRoa_QV-44" value="" style="endArrow=none;html=1;rounded=0;" edge="1" parent="dDl5YL72DU-pMeRoa_QV-59">
          <mxGeometry width="50" height="50" relative="1" as="geometry">
            <mxPoint y="230" as="sourcePoint" />
            <mxPoint x="330" as="targetPoint" />
          </mxGeometry>
        </mxCell>
      </root>
    </mxGraphModel>
  </diagram>
</mxfile>
